Units are S.I. units (second, meters, Newtons, ...)
Angles are in degrees.
name walk
datarows 23
datacolumns 18
range 1.700000 1.920000
endheader
time root_joint_q1 root_joint_q2 root_joint_q3 root_joint_q4 root_joint_q5 root_joint_q6 root_joint_q7 exo_ha_l_q exo_hip_l exo_knee_l l_ankle_coupling l_foot exo_ha_r_q exo_hip_r exo_knee_r r_ankle_coupling r_foot
1.700000	0.708508	0.023346	0.924643	-0.000552	-0.000291	-0.001474	0.999999	0.054173	-0.027712	-0.563317	0.589328	0.010487	0.005928	0.258830	-0.805210	0.546095	0.002839
1.710000	0.711086	0.023372	0.923699	-0.000501	-0.000278	-0.001425	0.999999	0.055516	-0.026807	-0.572587	0.597732	0.010380	0.005689	0.260512	-0.797344	0.536538	0.002936
1.720000	0.713683	0.023358	0.922714	-0.000456	-0.000268	-0.001369	0.999999	0.056794	-0.025872	-0.582076	0.606318	0.010222	0.005550	0.261974	-0.788965	0.526706	0.002957
1.730000	0.716287	0.023299	0.921694	-0.000419	-0.000253	-0.001304	0.999999	0.057999	-0.024864	-0.591806	0.615080	0.010002	0.005492	0.263173	-0.780126	0.516663	0.002906
1.740000	0.718892	0.023185	0.920638	-0.000389	-0.000235	-0.001228	0.999999	0.059118	-0.023777	-0.601783	0.624014	0.009707	0.005516	0.264132	-0.770888	0.506448	0.002779
1.750000	0.721497	0.023008	0.919541	-0.000364	-0.000224	-0.001140	0.999999	0.060141	-0.022628	-0.612009	0.633121	0.009323	0.005639	0.264908	-0.761319	0.496076	0.002573
1.760000	0.724096	0.022755	0.918394	-0.000341	-0.000233	-0.001035	0.999999	0.061060	-0.021437	-0.622500	0.642406	0.008835	0.005863	0.265535	-0.751481	0.485565	0.002294
1.770000	0.726686	0.022418	0.917179	-0.000314	-0.000290	-0.000910	0.999999	0.061875	-0.020240	-0.633292	0.651890	0.008229	0.006172	0.266005	-0.741425	0.474945	0.001973
1.780000	0.729259	0.021989	0.915855	-0.000272	-0.000451	-0.000762	1.000000	0.062602	-0.019125	-0.644456	0.661615	0.007500	0.006497	0.266219	-0.731185	0.464280	0.001687
1.790000	0.731812	0.021472	0.914334	-0.000196	-0.000833	-0.000584	0.999999	0.063295	-0.018290	-0.656127	0.671683	0.006664	0.006622	0.265887	-0.720776	0.453694	0.001581
1.800000	0.734353	0.020893	0.912432	-0.000047	-0.001678	-0.000369	0.999999	0.064088	-0.018187	-0.668543	0.682297	0.005780	0.006042	0.264311	-0.710250	0.443389	0.001833
1.810000	0.736931	0.020268	0.909963	0.000144	-0.003343	-0.000100	0.999994	0.064959	-0.019691	-0.681614	0.693531	0.004890	0.004349	0.260131	-0.700157	0.433489	0.002466
1.820000	0.739792	0.019108	0.911382	0.000521	-0.000839	0.000064	1.000000	0.065078	-0.017937	-0.680050	0.695205	0.002833	0.005809	0.261359	-0.699313	0.436207	0.000279
1.830000	0.739792	0.019108	0.911382	0.000521	-0.000839	0.000064	1.000000	0.065078	-0.017937	-0.680050	0.695205	0.002833	0.005809	0.261359	-0.699313	0.436207	0.000279
1.840000	0.741027	0.020727	0.911813	0.000595	0.000493	-0.000300	1.000000	0.068688	-0.014846	-0.682653	0.697437	0.005044	0.004299	0.264699	-0.703403	0.439400	0.001822
1.850000	0.741600	0.024200	0.911819	0.000305	0.001073	-0.001024	0.999999	0.074256	-0.012316	-0.685636	0.699160	0.010059	0.001160	0.267842	-0.708219	0.442006	0.005826
1.860000	0.741971	0.028054	0.911714	-0.000005	0.001457	-0.001826	0.999997	0.080345	-0.009949	-0.688484	0.700542	0.015662	-0.002432	0.271014	-0.713297	0.444459	0.010347
1.870000	0.742277	0.031795	0.911613	-0.000244	0.001833	-0.002610	0.999995	0.086423	-0.007545	-0.691134	0.701682	0.021104	-0.006034	0.274269	-0.718365	0.446806	0.014728
1.880000	0.742541	0.035396	0.911527	-0.000437	0.002211	-0.003370	0.999992	0.092391	-0.005096	-0.693641	0.702648	0.026340	-0.009553	0.277528	-0.723270	0.448995	0.018928
1.890000	0.742761	0.038942	0.911441	-0.000635	0.002565	-0.004121	0.999988	0.098267	-0.002644	-0.696063	0.703486	0.031490	-0.012989	0.280697	-0.727901	0.450956	0.023054
1.900000	0.742928	0.042553	0.911331	-0.000902	0.002853	-0.004884	0.999984	0.104093	-0.000244	-0.698467	0.704239	0.036733	-0.016364	0.283667	-0.732154	0.452609	0.027259
1.910000	0.743052	0.046294	0.911183	-0.001299	0.003052	-0.005669	0.999978	0.109839	0.002072	-0.700945	0.704986	0.042163	-0.019631	0.286319	-0.735882	0.453879	0.031620
1.920000	0.743184	0.050105	0.911005	-0.001875	0.003178	-0.006462	0.999972	0.115310	0.004307	-0.703626	0.705885	0.047683	-0.022601	0.288505	-0.738846	0.454708	0.036047
